<svg width="592" height="296" viewBox="0 0 592 296" fill="none" xmlns="http://www.w3.org/2000/svg">
<rect width="592" height="296" fill="#F6F6F6"/>
<g opacity="0.2">
<path d="M318.5 116.25H310.704L306.87 110.501C306.665 110.193 306.387 109.941 306.061 109.766C305.734 109.592 305.37 109.5 305 109.5H287C286.63 109.5 286.266 109.592 285.939 109.766C285.613 109.941 285.335 110.193 285.13 110.501L281.293 116.25H273.5C271.71 116.25 269.993 116.961 268.727 118.227C267.461 119.493 266.75 121.21 266.75 123V154.5C266.75 156.29 267.461 158.007 268.727 159.273C269.993 160.539 271.71 161.25 273.5 161.25H318.5C320.29 161.25 322.007 160.539 323.273 159.273C324.539 158.007 325.25 156.29 325.25 154.5V123C325.25 121.21 324.539 119.493 323.273 118.227C322.007 116.961 320.29 116.25 318.5 116.25ZM306.125 137.625C306.125 139.628 305.531 141.585 304.419 143.25C303.306 144.915 301.725 146.213 299.875 146.979C298.025 147.746 295.989 147.946 294.025 147.555C292.061 147.165 290.257 146.2 288.841 144.784C287.425 143.368 286.46 141.564 286.07 139.6C285.679 137.636 285.879 135.6 286.646 133.75C287.412 131.9 288.71 130.319 290.375 129.206C292.04 128.094 293.997 127.5 296 127.5C298.685 127.5 301.261 128.567 303.159 130.466C305.058 132.364 306.125 134.94 306.125 137.625Z" fill="#323C44"/>
</g>
<path d="M271.824 186.296H273.12V187.208L273.144 187.232C273.352 186.888 273.624 186.62 273.96 186.428C274.296 186.228 274.668 186.128 275.076 186.128C275.756 186.128 276.292 186.304 276.684 186.656C277.076 187.008 277.272 187.536 277.272 188.24V192.5H275.904V188.6C275.888 188.112 275.784 187.76 275.592 187.544C275.4 187.32 275.1 187.208 274.692 187.208C274.46 187.208 274.252 187.252 274.068 187.34C273.884 187.42 273.728 187.536 273.6 187.688C273.472 187.832 273.372 188.004 273.3 188.204C273.228 188.404 273.192 188.616 273.192 188.84V192.5H271.824V186.296ZM281.558 192.668C281.062 192.668 280.618 192.588 280.226 192.428C279.842 192.26 279.514 192.032 279.242 191.744C278.978 191.456 278.774 191.112 278.63 190.712C278.494 190.312 278.426 189.872 278.426 189.392C278.426 188.92 278.494 188.484 278.63 188.084C278.774 187.684 278.978 187.34 279.242 187.052C279.514 186.764 279.842 186.54 280.226 186.38C280.618 186.212 281.062 186.128 281.558 186.128C282.054 186.128 282.494 186.212 282.878 186.38C283.27 186.54 283.598 186.764 283.862 187.052C284.134 187.34 284.338 187.684 284.474 188.084C284.618 188.484 284.69 188.92 284.69 189.392C284.69 189.872 284.618 190.312 284.474 190.712C284.338 191.112 284.134 191.456 283.862 191.744C283.598 192.032 283.27 192.26 282.878 192.428C282.494 192.588 282.054 192.668 281.558 192.668ZM281.558 191.588C281.862 191.588 282.126 191.524 282.35 191.396C282.574 191.268 282.758 191.1 282.902 190.892C283.046 190.684 283.15 190.452 283.214 190.196C283.286 189.932 283.322 189.664 283.322 189.392C283.322 189.128 283.286 188.864 283.214 188.6C283.15 188.336 283.046 188.104 282.902 187.904C282.758 187.696 282.574 187.528 282.35 187.4C282.126 187.272 281.862 187.208 281.558 187.208C281.254 187.208 280.99 187.272 280.766 187.4C280.542 187.528 280.358 187.696 280.214 187.904C280.07 188.104 279.962 188.336 279.89 188.6C279.826 188.864 279.794 189.128 279.794 189.392C279.794 189.664 279.826 189.932 279.89 190.196C279.962 190.452 280.07 190.684 280.214 190.892C280.358 191.1 280.542 191.268 280.766 191.396C280.99 191.524 281.254 191.588 281.558 191.588ZM289.203 186.296H290.499V187.136H290.523C290.715 186.776 290.983 186.52 291.327 186.368C291.671 186.208 292.043 186.128 292.443 186.128C292.931 186.128 293.355 186.216 293.715 186.392C294.083 186.56 294.387 186.796 294.627 187.1C294.867 187.396 295.047 187.744 295.167 188.144C295.287 188.544 295.347 188.972 295.347 189.428C295.347 189.844 295.291 190.248 295.179 190.64C295.075 191.032 294.911 191.38 294.687 191.684C294.471 191.98 294.195 192.22 293.859 192.404C293.523 192.58 293.127 192.668 292.671 192.668C292.471 192.668 292.271 192.648 292.071 192.608C291.871 192.576 291.679 192.52 291.495 192.44C291.311 192.36 291.139 192.26 290.979 192.14C290.827 192.012 290.699 191.864 290.595 191.696H290.571V194.792H289.203V186.296ZM293.979 189.404C293.979 189.124 293.943 188.852 293.871 188.588C293.799 188.324 293.691 188.092 293.547 187.892C293.403 187.684 293.223 187.52 293.007 187.4C292.791 187.272 292.543 187.208 292.263 187.208C291.687 187.208 291.251 187.408 290.955 187.808C290.667 188.208 290.523 188.74 290.523 189.404C290.523 189.716 290.559 190.008 290.631 190.28C290.711 190.544 290.827 190.772 290.979 190.964C291.131 191.156 291.311 191.308 291.519 191.42C291.735 191.532 291.983 191.588 292.263 191.588C292.575 191.588 292.839 191.524 293.055 191.396C293.271 191.268 293.447 191.104 293.583 190.904C293.727 190.696 293.827 190.464 293.883 190.208C293.947 189.944 293.979 189.676 293.979 189.404ZM296.503 183.932H297.871V187.112H297.895C298.063 186.832 298.311 186.6 298.639 186.416C298.975 186.224 299.347 186.128 299.755 186.128C300.435 186.128 300.971 186.304 301.363 186.656C301.755 187.008 301.951 187.536 301.951 188.24V192.5H300.583V188.6C300.567 188.112 300.463 187.76 300.271 187.544C300.079 187.32 299.779 187.208 299.371 187.208C299.139 187.208 298.931 187.252 298.747 187.34C298.563 187.42 298.407 187.536 298.279 187.688C298.151 187.832 298.051 188.004 297.979 188.204C297.907 188.404 297.871 188.616 297.871 188.84V192.5H296.503V183.932ZM306.238 192.668C305.742 192.668 305.298 192.588 304.906 192.428C304.522 192.26 304.194 192.032 303.922 191.744C303.658 191.456 303.454 191.112 303.31 190.712C303.174 190.312 303.106 189.872 303.106 189.392C303.106 188.92 303.174 188.484 303.31 188.084C303.454 187.684 303.658 187.34 303.922 187.052C304.194 186.764 304.522 186.54 304.906 186.38C305.298 186.212 305.742 186.128 306.238 186.128C306.734 186.128 307.174 186.212 307.558 186.38C307.95 186.54 308.278 186.764 308.542 187.052C308.814 187.34 309.018 187.684 309.154 188.084C309.298 188.484 309.37 188.92 309.37 189.392C309.37 189.872 309.298 190.312 309.154 190.712C309.018 191.112 308.814 191.456 308.542 191.744C308.278 192.032 307.95 192.26 307.558 192.428C307.174 192.588 306.734 192.668 306.238 192.668ZM306.238 191.588C306.542 191.588 306.806 191.524 307.03 191.396C307.254 191.268 307.438 191.1 307.582 190.892C307.726 190.684 307.83 190.452 307.894 190.196C307.966 189.932 308.002 189.664 308.002 189.392C308.002 189.128 307.966 188.864 307.894 188.6C307.83 188.336 307.726 188.104 307.582 187.904C307.438 187.696 307.254 187.528 307.03 187.4C306.806 187.272 306.542 187.208 306.238 187.208C305.934 187.208 305.67 187.272 305.446 187.4C305.222 187.528 305.038 187.696 304.894 187.904C304.75 188.104 304.642 188.336 304.57 188.6C304.506 188.864 304.474 189.128 304.474 189.392C304.474 189.664 304.506 189.932 304.57 190.196C304.642 190.452 304.75 190.684 304.894 190.892C305.038 191.1 305.222 191.268 305.446 191.396C305.67 191.524 305.934 191.588 306.238 191.588ZM309.883 186.296H310.915V184.436H312.283V186.296H313.519V187.316H312.283V190.628C312.283 190.772 312.287 190.896 312.295 191C312.311 191.104 312.339 191.192 312.379 191.264C312.427 191.336 312.495 191.392 312.583 191.432C312.671 191.464 312.791 191.48 312.943 191.48C313.039 191.48 313.135 191.48 313.231 191.48C313.327 191.472 313.423 191.456 313.519 191.432V192.488C313.367 192.504 313.219 192.52 313.075 192.536C312.931 192.552 312.783 192.56 312.631 192.56C312.271 192.56 311.979 192.528 311.755 192.464C311.539 192.392 311.367 192.292 311.239 192.164C311.119 192.028 311.035 191.86 310.987 191.66C310.947 191.46 310.923 191.232 310.915 190.976V187.316H309.883V186.296ZM317.347 192.668C316.851 192.668 316.407 192.588 316.015 192.428C315.631 192.26 315.303 192.032 315.031 191.744C314.767 191.456 314.563 191.112 314.419 190.712C314.283 190.312 314.215 189.872 314.215 189.392C314.215 188.92 314.283 188.484 314.419 188.084C314.563 187.684 314.767 187.34 315.031 187.052C315.303 186.764 315.631 186.54 316.015 186.38C316.407 186.212 316.851 186.128 317.347 186.128C317.843 186.128 318.283 186.212 318.667 186.38C319.059 186.54 319.387 186.764 319.651 187.052C319.923 187.34 320.127 187.684 320.263 188.084C320.407 188.484 320.479 188.92 320.479 189.392C320.479 189.872 320.407 190.312 320.263 190.712C320.127 191.112 319.923 191.456 319.651 191.744C319.387 192.032 319.059 192.26 318.667 192.428C318.283 192.588 317.843 192.668 317.347 192.668ZM317.347 191.588C317.651 191.588 317.915 191.524 318.139 191.396C318.363 191.268 318.547 191.1 318.691 190.892C318.835 190.684 318.939 190.452 319.003 190.196C319.075 189.932 319.111 189.664 319.111 189.392C319.111 189.128 319.075 188.864 319.003 188.6C318.939 188.336 318.835 188.104 318.691 187.904C318.547 187.696 318.363 187.528 318.139 187.4C317.915 187.272 317.651 187.208 317.347 187.208C317.043 187.208 316.779 187.272 316.555 187.4C316.331 187.528 316.147 187.696 316.003 187.904C315.859 188.104 315.751 188.336 315.679 188.6C315.615 188.864 315.583 189.128 315.583 189.392C315.583 189.664 315.615 189.932 315.679 190.196C315.751 190.452 315.859 190.684 316.003 190.892C316.147 191.1 316.331 191.268 316.555 191.396C316.779 191.524 317.043 191.588 317.347 191.588Z" fill="#CFD1D2"/>
</svg>
